<svg width="90" height="90" viewBox="0 0 90 90" fill="none" xmlns="http://www.w3.org/2000/svg">
<path d="M71.25 14.9997H55.575C54.7867 12.8279 53.3489 10.9514 51.4569 9.62533C49.5649 8.29926 47.3104 7.58789 45 7.58789C42.6896 7.58789 40.4351 8.29926 38.5431 9.62533C36.6511 10.9514 35.2133 12.8279 34.425 14.9997H18.75C16.7609 14.9997 14.8532 15.7899 13.4467 17.1964C12.0402 18.6029 11.25 20.5106 11.25 22.4997V74.9997C11.25 76.9888 12.0402 78.8965 13.4467 80.303C14.8532 81.7095 16.7609 82.4997 18.75 82.4997H71.25C73.2391 82.4997 75.1468 81.7095 76.5533 80.303C77.9598 78.8965 78.75 76.9888 78.75 74.9997V22.4997C78.75 20.5106 77.9598 18.6029 76.5533 17.1964C75.1468 15.7899 73.2391 14.9997 71.25 14.9997ZM45 14.9997C45.7417 14.9997 46.4667 15.2196 47.0834 15.6317C47.7001 16.0437 48.1807 16.6294 48.4646 17.3146C48.7484 17.9998 48.8226 18.7538 48.6779 19.4813C48.5332 20.2087 48.1761 20.8769 47.6516 21.4013C47.1272 21.9258 46.459 22.2829 45.7316 22.4276C45.0042 22.5723 44.2502 22.4981 43.5649 22.2142C42.8797 21.9304 42.294 21.4498 41.882 20.8331C41.4699 20.2164 41.25 19.4914 41.25 18.7497C41.25 17.7551 41.6451 16.8013 42.3484 16.098C43.0516 15.3948 44.0054 14.9997 45 14.9997ZM71.25 71.2497H18.75V56.2497H71.25V71.2497ZM71.25 48.7497H18.75V33.7497H71.25V48.7497Z" fill="#8FCCAD" fill-opacity="0.2"/>
<path d="M63.75 45C65.8211 45 67.5 43.3211 67.5 41.25C67.5 39.1789 65.8211 37.5 63.75 37.5C61.6789 37.5 60 39.1789 60 41.25C60 43.3211 61.6789 45 63.75 45Z" fill="#8FCCAD" fill-opacity="0.2"/>
<path d="M52.5 45C54.5711 45 56.25 43.3211 56.25 41.25C56.25 39.1789 54.5711 37.5 52.5 37.5C50.4289 37.5 48.75 39.1789 48.75 41.25C48.75 43.3211 50.4289 45 52.5 45Z" fill="#8FCCAD" fill-opacity="0.2"/>
<path d="M52.5 67.5C54.5711 67.5 56.25 65.8211 56.25 63.75C56.25 61.6789 54.5711 60 52.5 60C50.4289 60 48.75 61.6789 48.75 63.75C48.75 65.8211 50.4289 67.5 52.5 67.5Z" fill="#8FCCAD" fill-opacity="0.2"/>
<path d="M63.75 67.5C65.8211 67.5 67.5 65.8211 67.5 63.75C67.5 61.6789 65.8211 60 63.75 60C61.6789 60 60 61.6789 60 63.75C60 65.8211 61.6789 67.5 63.75 67.5Z" fill="#8FCCAD" fill-opacity="0.2"/>
<path d="M22.5 37.5H41.25V45H22.5V37.5ZM22.5 60H41.25V67.5H22.5V60Z" fill="#8FCCAD" fill-opacity="0.2"/>
</svg>
