<svg width="90" height="90" viewBox="0 0 90 90" fill="none" xmlns="http://www.w3.org/2000/svg">
<path d="M82.5 37.5H7.5M41.25 71.25L70.5 71.25C74.7004 71.25 76.8006 71.25 78.4049 70.4325C79.8161 69.7135 80.9635 68.5661 81.6825 67.1549C82.5 65.5506 82.5 63.4504 82.5 59.25V30.75C82.5 26.5496 82.5 24.4494 81.6825 22.8451C80.9635 21.4339 79.8161 20.2865 78.4049 19.5675C76.8006 18.75 74.7004 18.75 70.5 18.75H63.75M41.25 71.25L48.75 78.75M41.25 71.25L48.75 63.75M26.25 71.25H19.5C15.2996 71.25 13.1994 71.25 11.5951 70.4325C10.1839 69.7135 9.0365 68.5661 8.31745 67.1549C7.5 65.5506 7.5 63.4504 7.5 59.25V30.75C7.5 26.5496 7.5 24.4494 8.31745 22.8451C9.0365 21.4339 10.1839 20.2865 11.5951 19.5675C13.1994 18.75 15.2996 18.75 19.5 18.75H48.75M48.75 18.75L41.25 26.25M48.75 18.75L41.25 11.25" stroke="#9C8A66" stroke-width="8" stroke-linecap="round" stroke-linejoin="round"/>
</svg>
