<svg width="90" height="90" viewBox="0 0 90 90" fill="none" xmlns="http://www.w3.org/2000/svg">
<path d="M48.75 26.25L44.5667 17.8834C43.3628 15.4755 42.7607 14.2715 41.8626 13.3919C41.0684 12.614 40.1112 12.0224 39.0603 11.6599C37.8719 11.25 36.5258 11.25 33.8336 11.25H19.5C15.2996 11.25 13.1994 11.25 11.5951 12.0675C10.1839 12.7865 9.0365 13.9339 8.31745 15.3451C7.5 16.9494 7.5 19.0496 7.5 23.25V26.25M7.5 26.25H64.5C70.8006 26.25 73.9509 26.25 76.3574 27.4762C78.4742 28.5548 80.1952 30.2758 81.2738 32.3926C82.5 34.7991 82.5 37.9494 82.5 44.25V60.75C82.5 67.0506 82.5 70.2009 81.2738 72.6074C80.1952 74.7242 78.4742 76.4452 76.3574 77.5238C73.9509 78.75 70.8006 78.75 64.5 78.75H25.5C19.1994 78.75 16.0491 78.75 13.6426 77.5238C11.5258 76.4452 9.80475 74.7242 8.72618 72.6074C7.5 70.2009 7.5 67.0506 7.5 60.75V26.25Z" stroke="#9C6666" stroke-width="8" stroke-linecap="round" stroke-linejoin="round"/>
</svg>
