<svg width="40" height="40" viewBox="0 0 40 40" fill="none" xmlns="http://www.w3.org/2000/svg">
<path d="M26.6667 8.3335L31.6667 3.3335M31.6667 3.3335L36.6667 8.3335M31.6667 3.3335V13.3335M20.8333 5.00016H13C10.1997 5.00016 8.79961 5.00016 7.73005 5.54513C6.78924 6.0245 6.02433 6.7894 5.54497 7.73021C5 8.79977 5 10.1999 5 13.0002V27.0002C5 29.8004 5 31.2006 5.54497 32.2701C6.02433 33.2109 6.78924 33.9758 7.73005 34.4552C8.79961 35.0002 10.1997 35.0002 13 35.0002H28.3333C29.8833 35.0002 30.6583 35.0002 31.2941 34.8298C33.0196 34.3675 34.3673 33.0197 34.8296 31.2943C35 30.6584 35 29.8834 35 28.3335M17.5 14.1668C17.5 16.0078 16.0076 17.5002 14.1667 17.5002C12.3257 17.5002 10.8333 16.0078 10.8333 14.1668C10.8333 12.3259 12.3257 10.8335 14.1667 10.8335C16.0076 10.8335 17.5 12.3259 17.5 14.1668ZM24.9834 19.8637L10.8852 32.6802C10.0923 33.4011 9.69578 33.7616 9.66071 34.0738C9.63031 34.3445 9.73409 34.6129 9.93864 34.7927C10.1746 35.0002 10.7105 35.0002 11.7821 35.0002H27.4266C29.8252 35.0002 31.0246 35.0002 31.9665 34.5972C33.1491 34.0913 34.0912 33.1492 34.597 31.9667C35 31.0247 35 29.8254 35 27.4268C35 26.6197 35 26.2162 34.9118 25.8404C34.8009 25.3681 34.5883 24.9258 34.2888 24.5442C34.0504 24.2405 33.7353 23.9884 33.1051 23.4843L28.443 19.7546C27.8123 19.25 27.4969 18.9977 27.1497 18.9087C26.8436 18.8302 26.5214 18.8404 26.2209 18.938C25.8799 19.0487 25.5811 19.3204 24.9834 19.8637Z" stroke="#98AFC9" stroke-width="2" stroke-linecap="round" stroke-linejoin="round"/>
</svg>
