<svg width="25" height="24" viewBox="0 0 25 24" fill="none" xmlns="http://www.w3.org/2000/svg">
<path d="M16.2891 6V5.2C16.2891 4.0799 16.2891 3.51984 16.0711 3.09202C15.8793 2.71569 15.5734 2.40973 15.197 2.21799C14.7692 2 14.2092 2 13.0891 2H11.4891C10.369 2 9.80891 2 9.38108 2.21799C9.00476 2.40973 8.6988 2.71569 8.50705 3.09202C8.28906 3.51984 8.28906 4.0799 8.28906 5.2V6M10.2891 11.5V16.5M14.2891 11.5V16.5M3.28906 6H21.2891M19.2891 6V17.2C19.2891 18.8802 19.2891 19.7202 18.9621 20.362C18.6745 20.9265 18.2155 21.3854 17.651 21.673C17.0093 22 16.1692 22 14.4891 22H10.0891C8.40891 22 7.56883 22 6.92709 21.673C6.3626 21.3854 5.90366 20.9265 5.61604 20.362C5.28906 19.7202 5.28906 18.8802 5.28906 17.2V6" stroke="white" stroke-width="2" stroke-linecap="round" stroke-linejoin="round"/>
</svg>
