<svg width="80" height="81" viewBox="0 0 80 81" fill="none" xmlns="http://www.w3.org/2000/svg">
<path d="M29.3333 0.999474C26.8459 0.939991 24.3716 1.37856 22.0561 2.28937C19.7406 3.20019 17.6307 4.56486 15.8503 6.30312C14.07 8.04138 12.6553 10.1181 11.6894 12.4112C10.7235 14.7042 10.2259 17.1673 10.2259 19.6555C10.2259 22.1437 10.7235 24.6067 11.6894 26.8998C12.6553 29.1928 14.07 31.2696 15.8503 33.0078C17.6307 34.7461 19.7406 36.1107 22.0561 37.0216C24.3716 37.9324 26.8459 38.3709 29.3333 38.3115C31.8208 38.3709 34.2951 37.9324 36.6106 37.0216C38.926 36.1107 41.036 34.7461 42.8163 33.0078C44.5967 31.2696 46.0114 29.1928 46.9773 26.8998C47.9432 24.6067 48.4408 22.1437 48.4408 19.6555C48.4408 17.1673 47.9432 14.7042 46.9773 12.4112C46.0114 10.1181 44.5967 8.04138 42.8163 6.30312C41.036 4.56486 38.926 3.20019 36.6106 2.28937C34.2951 1.37856 31.8208 0.939991 29.3333 0.999474ZM18.6667 48.9675C13.716 48.9675 8.96802 50.9341 5.46734 54.4348C1.96666 57.9355 0 62.6834 0 67.6341L0 80.9515H58.6667V67.6341C58.6667 62.6834 56.7 57.9355 53.1993 54.4348C49.6986 50.9341 44.9507 48.9675 40 48.9675H18.6667ZM66.6667 54.3328H64V80.9995H80V67.6661C80 64.1299 78.5952 60.7385 76.0948 58.238C73.5943 55.7376 70.2029 54.3328 66.6667 54.3328Z" fill="#8FACCC" fill-opacity="0.2"/>
<path d="M61.3333 22.333C57.7971 22.333 54.4057 23.7378 51.9052 26.2382C49.4048 28.7387 48 32.1301 48 35.6663C48 39.2026 49.4048 42.5939 51.9052 45.0944C54.4057 47.5949 57.7971 48.9997 61.3333 48.9997C64.8695 48.9997 68.2609 47.5949 70.7614 45.0944C73.2619 42.5939 74.6667 39.2026 74.6667 35.6663C74.6667 32.1301 73.2619 28.7387 70.7614 26.2382C68.2609 23.7378 64.8695 22.333 61.3333 22.333Z" fill="#8FACCC" fill-opacity="0.2"/>
</svg>
